P3
8 8
255
56 194 118 56 194 118 56 194 118 56 194 118 56 194 118 56 194 118 56 194 118 56 194 118
56 194 118 20 20 28 20 20 28 20 20 28 20 20 28 20 20 28 20 20 28 56 194 118
56 194 118 20 20 28 20 20 28 250 206 84 250 206 84 20 20 28 20 20 28 56 194 118
56 194 118 20 20 28 20 20 28 250 206 84 250 206 84 20 20 28 20 20 28 56 194 118
56 194 118 20 20 28 20 20 28 250 206 84 250 206 84 20 20 28 20 20 28 56 194 118
56 194 118 20 20 28 20 20 28 250 206 84 250 206 84 20 20 28 20 20 28 56 194 118
56 194 118 20 20 28 20 20 28 20 20 28 20 20 28 20 20 28 20 20 28 56 194 118
56 194 118 56 194 118 56 194 118 56 194 118 56 194 118 56 194 118 56 194 118 56 194 118
