P3
8 8
255
20 20 28 20 20 28 20 20 28 20 20 28 20 20 28 20 20 28 20 20 28 20 20 28
20 20 28 20 20 28 255 122 89 255 122 89 255 122 89 255 122 89 20 20 28 20 20 28
20 20 28 255 122 89 235 235 245 235 235 245 235 235 245 235 235 245 255 122 89 20 20 28
20 20 28 255 122 89 235 235 245 250 206 84 250 206 84 235 235 245 255 122 89 20 20 28
20 20 28 255 122 89 235 235 245 235 235 245 235 235 245 235 235 245 255 122 89 20 20 28
20 20 28 20 20 28 255 122 89 56 194 118 56 194 118 255 122 89 20 20 28 20 20 28
20 20 28 20 20 28 255 122 89 20 20 28 20 20 28 255 122 89 20 20 28 20 20 28
20 20 28 20 20 28 20 20 28 20 20 28 20 20 28 20 20 28 20 20 28 20 20 28
