P3
8 8
255
20 20 28 20 20 28 20 20 28 20 20 28 20 20 28 20 20 28 20 20 28 20 20 28
20 20 28 20 20 28 20 20 28 235 235 245 235 235 245 20 20 28 20 20 28 20 20 28
20 20 28 20 20 28 235 235 245 89 178 255 89 178 255 235 235 245 20 20 28 20 20 28
20 20 28 20 20 28 235 235 245 89 178 255 89 178 255 235 235 245 20 20 28 20 20 28
20 20 28 20 20 28 235 235 245 89 178 255 89 178 255 235 235 245 20 20 28 20 20 28
20 20 28 20 20 28 20 20 28 235 235 245 235 235 245 20 20 28 20 20 28 20 20 28
20 20 28 20 20 28 235 235 245 20 20 28 20 20 28 235 235 245 20 20 28 20 20 28
20 20 28 20 20 28 20 20 28 20 20 28 20 20 28 20 20 28 20 20 28 20 20 28
